<svg id="visual" viewBox="0 0 900 600" width="900" height="600" xmlns="http://www.w3.org/2000/svg" xmlns:xlink="http://www.w3.org/1999/xlink" version="1.1"><g stroke-width="1" stroke-linejoin="bevel"><path d="M444 210L226 398L462 397Z" fill="#393939" stroke="#393939"></path><path d="M444 210L236 198L226 398Z" fill="#252525" stroke="#252525"></path><path d="M226 398L444 600L462 397Z" fill="#323232" stroke="#323232"></path><path d="M226 398L239 600L444 600Z" fill="#323232" stroke="#323232"></path><path d="M460 0L228 0L236 198Z" fill="#323232" stroke="#323232"></path><path d="M0 210L0 388L226 398Z" fill="#1e1e1e" stroke="#1e1e1e"></path><path d="M684 188L460 0L444 210Z" fill="#2f2f2f" stroke="#2f2f2f"></path><path d="M444 210L460 0L236 198Z" fill="#1e1e1e" stroke="#1e1e1e"></path><path d="M685 600L671 397L462 397Z" fill="#1e1e1e" stroke="#1e1e1e"></path><path d="M462 397L671 397L444 210Z" fill="#3d3d3d" stroke="#3d3d3d"></path><path d="M0 210L226 398L236 198Z" fill="#252525" stroke="#252525"></path><path d="M226 398L0 600L239 600Z" fill="#2c2c2c" stroke="#2c2c2c"></path><path d="M0 0L0 210L236 198Z" fill="#323232" stroke="#323232"></path><path d="M671 397L684 188L444 210Z" fill="#2f2f2f" stroke="#2f2f2f"></path><path d="M444 600L685 600L462 397Z" fill="#323232" stroke="#323232"></path><path d="M671 397L900 214L684 188Z" fill="#323232" stroke="#323232"></path><path d="M684 188L661 0L460 0Z" fill="#3d3d3d" stroke="#3d3d3d"></path><path d="M0 388L0 600L226 398Z" fill="#282828" stroke="#282828"></path><path d="M228 0L0 0L236 198Z" fill="#2c2c2c" stroke="#2c2c2c"></path><path d="M685 600L900 412L671 397Z" fill="#2f2f2f" stroke="#2f2f2f"></path><path d="M684 188L900 0L661 0Z" fill="#363636" stroke="#363636"></path><path d="M900 412L900 214L671 397Z" fill="#404040" stroke="#404040"></path><path d="M685 600L900 600L900 412Z" fill="#2f2f2f" stroke="#2f2f2f"></path><path d="M900 214L900 0L684 188Z" fill="#363636" stroke="#363636"></path></g></svg>